<svg width="57" height="35" viewBox="0 0 57 35" fill="none" xmlns="http://www.w3.org/2000/svg">
<path d="M53.0858 11.5049L45.5253 3.94444C45.5207 3.93977 45.5156 3.93546 45.5109 3.93079C45.5063 3.92612 45.5007 3.91983 45.4953 3.91444C43.2891 1.7084 40.3805 0.343654 37.2737 0.056681C34.1669 -0.230292 31.0578 0.57859 28.4846 2.34317C25.9114 0.57859 22.8023 -0.230292 19.6955 0.056681C16.5887 0.343654 13.6802 1.7084 11.4739 3.91444L3.91344 11.4747C1.55789 13.8309 0.167261 16.9818 0.0141349 20.3099C-0.138991 23.6381 0.956427 26.9035 3.08567 29.4661C5.21493 32.0285 8.22446 33.7034 11.5244 34.1623C14.8243 34.6212 18.1767 33.8312 20.9243 31.9469C23.1491 33.4725 25.7833 34.2893 28.4808 34.2902C31.1785 34.291 33.8131 33.4756 36.0387 31.9512C38.7831 33.8472 42.1373 34.6482 45.4423 34.1972C48.7473 33.746 51.7641 32.0755 53.9002 29.5135C56.0362 26.9515 57.1369 23.6834 56.9864 20.3513C56.8356 17.019 55.4444 13.8636 53.0858 11.5049ZM16.8189 28.1609C15.1122 28.9761 13.1722 29.1615 11.3419 28.6847C9.51154 28.208 7.9087 27.0994 6.81663 25.5551C5.72457 24.0107 5.21357 22.1302 5.37396 20.2456C5.53434 18.361 6.35579 16.5937 7.69312 15.2562L15.2534 7.69574C16.4269 6.52381 17.9343 5.74387 19.5689 5.46305C21.2034 5.18224 22.8848 5.41429 24.382 6.12734L19.0341 11.4747C16.9833 13.5149 15.6556 16.1697 15.2534 19.0344C15.1648 19.6608 15.1202 20.2925 15.1197 20.9252C15.1144 23.4261 15.8157 25.8776 17.1429 27.9974C17.0358 28.0546 16.9278 28.1088 16.8189 28.1604V28.1609ZM34.1548 26.5959C32.6493 28.0916 30.6123 28.9292 28.4902 28.9258C26.368 28.9222 24.3339 28.0776 22.8332 26.5771C21.3327 25.0764 20.4881 23.0423 20.4845 20.9201C20.4811 18.798 21.3187 16.761 22.8144 15.2555L28.4846 9.58522L34.1548 15.2555C35.656 16.7604 36.4991 18.7994 36.4991 20.9252C36.4991 23.0507 35.656 25.0897 34.1548 26.5947V26.5959ZM49.3055 26.6259C48.1265 27.8019 46.6111 28.5823 44.969 28.8591C43.327 29.136 41.6395 28.8956 40.1401 28.1712C40.0322 28.1192 39.9255 28.0648 39.82 28.0078C41.1513 25.8857 41.8549 23.4302 41.8495 20.9252C41.849 20.2925 41.8044 19.6608 41.7158 19.0344C41.3137 16.1697 39.9859 13.5149 37.9351 11.4747L32.6199 6.15968L32.5899 6.12967C34.0864 5.41695 35.7669 5.18474 37.4007 5.46489C39.0345 5.74506 40.5414 6.52387 41.7151 7.69448C41.7205 7.69987 41.7255 7.70562 41.7307 7.71101C41.7359 7.7164 41.7404 7.71999 41.7451 7.72466L49.2701 15.2497L49.3061 15.2856C50.8098 16.7895 51.6546 18.8292 51.6546 20.9559C51.6546 23.0825 50.8098 25.1222 49.3061 26.6261L49.3055 26.6259Z" fill="url(#paint0_linear)"/>
<defs>
<linearGradient id="paint0_linear" x1="15.618" y1="33.9424" x2="28.6512" y2="-2.2994" gradientUnits="userSpaceOnUse">
<stop stop-color="#CB1A1A"/>
<stop offset="1" stop-color="#FF2539"/>
</linearGradient>
</defs>
</svg>
